<?xml version="1.0" encoding="UTF-8"?><svg id="a" xmlns="http://www.w3.org/2000/svg" viewBox="0 0 639.05 194.75"><defs><style>.b{fill:#4c0a77;}</style></defs><path class="b" d="M88.13,0C73.81,0,61.63,5.64,52.44,15.3c-.65-.02-1.3-.04-1.95-.04-18.69,0-36.21,10.79-44.76,27.55C1.99,50.13,.6,58.01,.17,66.02c-.39,7.19,0,14.5,0,21.62v69.02H38.53s.03-34,0-63.23c-.02-19.68-.14-37.21,0-40.81,.68-17.03,5.3-28.16,13.91-37.27,28.55,.03,47.03,19.65,48.06,50.9,.24,7.17,.31,45.56,.31,45.56v44.85h38.35v-60.63c0-18.33,.14-34.2-1.12-45.12C134.52,20.37,116.02,0,88.13,0"/><path class="b" d="M290.36,72.74V3.71h-38.36s-.03,34,0,63.23c.02,19.68,.14,37.21,0,40.81-.68,17.03-5.3,28.16-13.91,37.27-28.55-.03-47.03-19.65-48.06-50.9-.24-7.17-.34-24.98-.34-45.6V3.68l-38.33,.04v60.63c0,18.33-.14,34.2,1.12,45.12,3.54,30.53,22.03,50.9,49.92,50.9,14.32,0,26.5-5.64,35.69-15.3,.65,.03,1.3,.04,1.95,.04,18.69,0,36.21-10.8,44.76-27.55,3.74-7.32,5.12-15.2,5.56-23.21,.39-7.19,0-14.5,0-21.62"/><path class="b" d="M380.82,72.26h-33V26.85h33c13.33,0,23.16,9.7,23.16,22.49s-9.83,22.93-23.16,22.93m0-70.1h-58.57V156.48h25.57v-59.52h33c28.19,0,48.95-20.06,48.95-47.62S409.01,2.16,380.82,2.16"/><path class="b" d="M501.67,113.05c0,13.45-11.58,26.23-28.41,26.23-10.71,0-17.7-5.95-17.7-14.33,0-11.24,10.71-16.53,29.72-16.53h16.39v4.63Zm-22.73-66.58c-22.95,0-42.18,16.97-43.93,38.58h21.85c.66-11.02,10.27-18.52,22.07-18.52,13.77,0,22.73,8.6,22.73,21.6v1.98h-15.73c-31.91,0-51.79,14.11-51.79,36.81,0,18.08,14.2,31.74,34.96,31.74,14.21,0,25.13-5.51,32.56-15.65v13.45h22.95V89.68c0-25.79-15.95-43.21-45.67-43.21"/><polygon class="b" points="612.83 49.04 584.2 122.45 555.57 49.04 529.35 49.04 571.74 151.11 552.51 194.75 578.74 194.75 639.05 49.04 612.83 49.04"/></svg>